<?xml version="1.0" standalone="no"?>
<!DOCTYPE svg PUBLIC "-//W3C//DTD SVG 20010904//EN"
 "http://www.w3.org/TR/2001/REC-SVG-20010904/DTD/svg10.dtd">
<svg version="1.0" xmlns="http://www.w3.org/2000/svg"
 width="400.000000pt" height="400.000000pt" viewBox="0 0 400.000000 400.000000"
 preserveAspectRatio="xMidYMid meet">
<metadata>
Created by potrace 1.15, written by Peter Selinger 2001-2017
</metadata>
<g transform="translate(0.000000,400.000000) scale(0.100000,-0.100000)"
fill="#000000" stroke="none">
<path d="M902 3140 c-20 -12 -40 -38 -52 -65 -13 -30 -26 -46 -42 -49 -13 -3
-49 -10 -80 -16 -35 -7 -70 -22 -92 -39 -30 -24 -49 -30 -118 -36 -138 -11
-301 -42 -343 -64 -21 -12 -51 -21 -66 -21 -27 0 -59 -22 -59 -41 0 -6 5 -19
10 -30 10 -18 27 -19 589 -19 578 0 578 0 606 22 22 17 48 23 124 29 117 10
295 33 414 55 67 12 90 21 98 36 15 27 -10 53 -70 73 -57 18 -116 21 -247 10
-91 -7 -102 -6 -115 10 -69 88 -118 112 -187 93 -24 -7 -46 -5 -79 6 -25 9
-56 13 -70 10 -16 -5 -35 2 -63 21 -53 37 -114 43 -158 15z m129 -76 c30 -31
38 -35 69 -30 19 3 40 6 45 6 229 -7 226 -7 249 -54 30 -64 61 -72 207 -52
113 15 202 11 196 -8 -5 -14 -164 -40 -377 -61 -102 -10 -178 -23 -200 -33
-31 -15 -91 -17 -515 -20 -434 -2 -478 -1 -460 13 29 22 72 32 235 50 84 10
153 22 165 31 11 7 29 21 41 29 12 9 53 22 93 29 74 14 121 43 121 76 0 32 30
60 64 60 24 0 41 -9 67 -36z"/>
<path d="M3247 3129 c-47 -11 -98 -37 -114 -58 -7 -9 -13 -30 -13 -46 0 -53
-24 -75 -80 -75 -148 0 -567 -87 -618 -129 -60 -47 -76 -54 -169 -67 -54 -8
-128 -23 -165 -34 -59 -18 -68 -24 -68 -44 0 -13 7 -27 16 -30 24 -9 343 -6
469 4 61 5 232 12 380 15 341 7 351 9 367 43 l13 27 165 -3 c161 -3 166 -4
185 -28 19 -22 28 -24 105 -24 47 0 129 3 183 7 95 6 97 7 97 31 0 24 -1 25
-59 19 -32 -4 -101 -9 -154 -13 -95 -7 -95 -7 -99 17 -3 22 -8 24 -63 26 -33
1 -137 8 -231 14 -94 7 -183 9 -198 5 -24 -6 -27 -10 -21 -36 l7 -30 -209 0
c-114 0 -275 -5 -358 -10 -357 -22 -417 -21 -242 4 37 6 50 13 56 30 5 12 16
28 24 35 28 23 323 90 445 102 64 5 141 13 171 16 69 6 101 35 101 91 0 54 17
72 85 88 96 22 165 19 205 -11 28 -20 45 -25 97 -25 70 0 84 -12 97 -79 3 -19
11 -40 17 -48 17 -20 69 -16 115 9 40 21 43 21 68 5 17 -11 26 -27 26 -43 0
-65 43 -114 101 -114 32 0 23 35 -13 51 -30 13 -33 19 -38 68 -4 40 -12 58
-29 72 -43 35 -75 35 -171 3 -12 -4 -19 7 -28 40 -18 68 -37 83 -123 91 -43 4
-88 15 -107 26 -36 21 -153 25 -225 8z"/>
<path d="M2448 2433 c-47 -38 -143 -114 -214 -170 -118 -93 -252 -222 -379
-366 -28 -31 -58 -57 -67 -57 -10 0 -79 55 -155 121 -149 131 -205 165 -260
156 -55 -9 -304 -141 -452 -240 -41 -28 -153 -108 -248 -179 -201 -149 -213
-156 -248 -140 -44 20 -117 15 -151 -10 -56 -44 -274 -268 -274 -283 0 -9 7
-18 16 -22 11 -4 58 37 158 136 123 122 147 141 174 141 22 0 39 -8 54 -25 12
-14 25 -25 29 -25 5 0 103 69 219 152 116 84 228 164 247 178 26 18 56 27 102
31 36 4 87 15 112 25 46 18 46 18 74 -4 41 -32 88 -38 143 -16 37 15 73 19
167 19 66 0 126 4 132 8 17 11 49 -7 98 -53 39 -37 377 -257 442 -288 18 -9
36 -13 39 -9 9 9 -16 29 -198 157 -86 61 -160 115 -163 120 -11 19 216 265
338 367 l78 66 33 -18 33 -18 65 37 c72 40 114 45 171 21 51 -21 71 -19 107
12 32 26 33 26 92 14 51 -10 77 -25 160 -87 140 -106 188 -151 304 -283 114
-129 157 -167 260 -233 38 -25 101 -78 139 -117 39 -40 88 -83 110 -96 43 -25
134 -46 166 -38 34 9 21 31 -23 38 -76 12 -126 42 -220 132 -51 48 -114 99
-141 113 -26 14 -47 28 -47 31 0 3 30 19 68 34 37 16 103 46 146 67 102 48
137 49 180 4 17 -18 54 -57 81 -87 l50 -53 3 32 c3 34 5 31 -105 155 -52 58
-116 48 -321 -48 -136 -64 -144 -66 -166 -51 -13 8 -76 73 -139 143 -137 153
-170 185 -307 288 -58 43 -141 113 -185 155 -106 102 -149 130 -200 130 -36 0
-53 -9 -127 -67z m165 11 c47 -24 103 -71 129 -107 20 -29 21 -30 2 -23 -51
22 -67 20 -95 -15 l-27 -34 -52 19 c-67 24 -136 18 -190 -18 -48 -32 -65 -34
-50 -6 15 29 217 200 236 200 8 0 29 -7 47 -16z m-1104 -446 c51 -39 90 -76
88 -82 -3 -7 -32 -10 -84 -8 -65 3 -96 -1 -161 -22 -86 -27 -101 -26 -145 10
-30 25 -53 25 -131 -3 -22 -7 -41 -11 -43 -9 -5 5 182 110 270 152 40 18 82
33 94 34 11 0 62 -32 112 -72z"/>
<path d="M5 1150 c-3 -5 -3 -14 0 -20 4 -7 682 -10 2001 -10 1987 0 1994 0
1994 20 0 20 -7 20 -1994 20 -1319 0 -1997 -3 -2001 -10z"/>
</g>
</svg>
